<svg width="523" height="513" viewBox="0 0 523 513" fill="none" xmlns="http://www.w3.org/2000/svg">
<defs>
<linearGradient id="paint0_linear_704_27" x1="331.5" y1="-50.5" x2="104" y2="570" gradientUnits="userSpaceOnUse">
<stop stop-color="white"/>
<stop offset="1" stop-color="#4F4F4F"/>
</linearGradient>
<linearGradient id="paint1_linear_704_27" x1="331.5" y1="-50.5" x2="104" y2="570" gradientUnits="userSpaceOnUse">
<stop stop-color="white"/>
<stop offset="1" stop-color="#4F4F4F"/>
</linearGradient>
<linearGradient id="paint2_linear_704_27" x1="391.5" y1="120" x2="35" y2="513.5" gradientUnits="userSpaceOnUse">
<stop stop-color="white"/>
<stop offset="1" stop-color="white" stop-opacity="0"/>
</linearGradient>
</defs>
<path fill-rule="evenodd" clip-rule="evenodd" d="M201 452.5C278.872 452.5 342 389.372 342 311.5C342 233.628 278.872 170.5 201 170.5C123.128 170.5 60 233.628 60 311.5C60 389.372 123.128 452.5 201 452.5ZM201 512.5C312.009 512.5 402 422.509 402 311.5C402 200.491 312.009 110.5 201 110.5C89.9908 110.5 0 200.491 0 311.5C0 422.509 89.9908 512.5 201 512.5Z" fill="url(#paint0_linear_704_27)"/>
<path fill-rule="evenodd" clip-rule="evenodd" d="M329 0H523V194H463V102.426L350.213 215.213L307.787 172.787L420.574 60H329V0Z" fill="url(#paint1_linear_704_27)"/>
<path d="M199 244.25V322.496C194.624 319.974 189.581 318.417 184.167 318.417C167.776 318.417 154.5 331.692 154.5 348.083C154.5 364.474 167.776 377.75 184.167 377.75C200.557 377.75 213.833 364.474 213.833 348.083V273.917H243.5V244.25H199Z" fill="url(#paint2_linear_704_27)"/>
</svg>
